
        <svg xmlns="http://www.w3.org/2000/svg" xmlns:xlink="http://www.w3.org/1999/xlink" version="1.1" width="2426.9146827772092" 
        height="3173.3510487698013" viewBox="0 0 2426.9146827772092 3173.3510487698013">
			<rect fill="#1ec8aa" width="2426.9146827772092" height="3173.3510487698013"/>
			<g transform="scale(8.66755243849003) translate(10, 10)">
				<defs id="SvgjsDefs3605"></defs><g id="SvgjsG3606" featureKey="symbolFeature-0" transform="matrix(0.8647791964584026,0,0,0.8647791964584026,86.89552363900465,19.123499442622784)" fill="#fff0e5"><path xmlns="http://www.w3.org/2000/svg" d="M93.66,7.771c-0.475-1.581-2.14-2.48-3.723-2.005L77.703,9.432l0.43,1.433l-0.913,0.273  c-3.005,1.026-4.899,3.021-5.646,5.995l-0.487,2.393L7.059,19.541l8.535,35.081l24.919,3.157c-0.292,0.229-0.501,0.565-0.559,0.962  c-0.118,0.818,0.449,1.576,1.267,1.694l2.383,0.344c0.009,0.001,0.017,0.005,0.025,0.007c1.305,0.228,2.797,1.661,3.081,2.997  l2.703,10.977c0.221,1.178-0.032,2.439-0.675,3.377c-0.641,0.932-1.639,1.527-2.965,1.771c-0.034,0.006-0.064,0.02-0.098,0.028  H25.619c-5.347,0-7.368,0.969-9.422,2.877c-0.605,0.562-0.64,1.509-0.078,2.113c0.294,0.317,0.695,0.479,1.096,0.479  c0.364,0,0.729-0.133,1.018-0.4c1.039-0.965,2.021-1.672,4.598-1.947l1.072,2.067c-1.031,1.024-1.67,2.442-1.67,4.009  c0,3.125,2.536,5.658,5.66,5.658c3.122,0,5.656-2.531,5.656-5.658c0-3.121-2.534-5.656-5.656-5.656  c-0.228,0-0.451,0.018-0.671,0.043l-0.266-0.592h39.663c0.058,0,0.113-0.008,0.17-0.01l-0.006,0.004l1.141,2.202  c-1.029,1.024-1.667,2.442-1.667,4.009c0,3.127,2.53,5.658,5.656,5.658s5.656-2.531,5.656-5.658c0-3.121-2.53-5.656-5.656-5.656  c-0.204,0-0.405,0.012-0.604,0.033l-0.772-1.781c0.57-0.383,1.092-0.845,1.536-1.393c1.469-1.81,2.007-4.289,1.478-6.803  l-2.187-7.385c-0.723-2.853-2.683-4.588-5.8-5.194l0.134,0.017l8.792-43.174c0.481-1.915,1.655-3.13,3.643-3.81l0.858-0.257  l0.429,1.433l12.234-3.665C93.237,11.021,94.133,9.356,93.66,7.771z M17.996,51.841l-1.338-5.501h1.338V51.841z M17.996,43.349  H15.93l-2.35-9.66h4.416V43.349z M17.996,30.698h-5.144l-1.987-8.167l7.13-0.001V30.698z M26.642,53.007l-5.655-0.717v-5.95h5.655  V53.007z M26.642,43.349h-5.655v-9.66h5.655V43.349z M26.642,30.698h-5.655v-8.169l5.655-0.001V30.698z M35.29,54.103l-5.657-0.717  V46.34h5.657V54.103z M35.29,43.349h-5.657v-9.66h5.657V43.349z M35.29,30.698h-5.657v-8.17l5.657-0.001V30.698z M43.938,55.198  l-5.657-0.717V46.34h5.657V55.198z M43.938,43.349h-5.657v-9.66h5.657V43.349z M43.938,30.698h-5.657v-8.172l5.657-0.001V30.698z   M27.893,87.637c0.824,0,1.495,0.672,1.495,1.496c0,0.83-0.67,1.494-1.495,1.494c-0.827,0-1.497-0.664-1.497-1.494  C26.396,88.309,27.066,87.637,27.893,87.637z M55.577,33.689h5.655v9.66h-5.655V33.689z M55.577,46.34h5.655v11.05l-5.655-0.717  V46.34z M46.929,22.523l5.656-0.001v8.176h-5.656V22.523z M46.929,33.689h5.656v9.66h-5.656V33.689z M46.929,46.34h5.656v9.954  l-5.656-0.717V46.34z M71.913,87.637c0.822,0,1.495,0.672,1.495,1.496c0,0.83-0.673,1.494-1.495,1.494  c-0.83,0-1.497-0.664-1.497-1.494C70.416,88.309,71.083,87.637,71.913,87.637z M68.48,66.941l2.154,7.265  c0.329,1.63,0.016,3.136-0.884,4.245c-0.777,0.957-1.89,1.484-3.132,1.484H51.121c0.026-0.036,0.056-0.068,0.081-0.105  c1.101-1.602,1.521-3.65,1.133-5.703l-2.709-11.012c-0.113-0.53-0.329-1.052-0.601-1.555l15.542,2.24  C66.834,64.125,67.999,65.047,68.48,66.941z M64.225,53.219V46.34h1.401L64.225,53.219z M66.235,43.349h-2.011v-9.66h3.978  L66.235,43.349z M68.812,30.698h-4.587v-8.129h-2.992v8.129h-5.655v-8.176l14.9-0.003L68.812,30.698z"></path></g><g id="SvgjsG3607" featureKey="nameFeature-0" transform="matrix(2.773037705127465,0,0,2.773037705127465,-10.426625711695776,88.28498670796)" fill="#fff0e5"><path d="M24.68 38.52 l0 -23.4 l-3.4 0 l-6.48 20 l-6 -20 l-3.56 0 l0 23.4 l2.12 0 l0 -22.2 c0 -0.16 0.08 -0.28 0.28 -0.28 l0.24 0 c0.16 0 0.28 0.12 0.28 0.2 l6.04 22.28 l1.4 0 l6.56 -22.28 c0.04 -0.12 0.12 -0.2 0.24 -0.2 c0.16 0 0.28 0.12 0.28 0.28 l0 22.2 l2 0 z M25.84 13.600000000000001 c0.2 0 0.36 0.16 0.36 0.36 l0 25.68 c0 0.2 -0.16 0.36 -0.36 0.36 l-4.36 0 c-0.12 0 -0.32 -0.16 -0.32 -0.36 l0 -14.8 l-4.4 14.92 c-0.08 0.16 -0.16 0.24 -0.32 0.24 l-3.16 0 c-0.12 0 -0.28 -0.08 -0.32 -0.24 l-4.12 -15.2 l0 15.08 c0 0.2 -0.16 0.36 -0.36 0.36 l-4.44 0 c-0.16 0 -0.28 -0.16 -0.28 -0.36 l0 -25.68 c0 -0.2 0.12 -0.36 0.28 -0.36 l5.6 0 c0.16 0 0.32 0.12 0.36 0.24 l4.84 16.2 l5.32 -16.2 c0 -0.12 0.12 -0.24 0.28 -0.24 l5.4 0 z M50 32.04 l0 -10.52 c0 -5.16 -2.48 -6.76 -7.6 -6.76 c-4.84 0 -7.68 1.48 -7.68 6.76 l0 10.52 c0 5.32 2.44 6.88 7.68 6.88 c4.84 0 7.6 -1.4 7.6 -6.88 z M42.6 17.12 c3.24 0 5.12 1.88 5.12 5.72 l0 7.92 c0 3.56 -1.56 5.76 -5.12 5.76 l-0.48 0 c-3.2 0 -5.08 -2 -5.08 -5.76 l0 -7.92 c0 -3.52 1.6 -5.72 5.08 -5.72 l0.48 0 z M42.4 13.239999999999998 c3.44 0 5.84 0.76 7.36 2.4 c1.2 1.32 1.76 3.2 1.76 5.88 l0 10.52 c0 2.76 -0.56 4.68 -1.76 5.96 c-1.56 1.6 -3.92 2.4 -7.36 2.4 c-3.56 0 -5.88 -0.8 -7.4 -2.4 c-1.16 -1.28 -1.8 -3.2 -1.8 -5.96 l0 -10.52 c0 -2.68 0.6 -4.6 1.8 -5.92 c1.52 -1.64 3.92 -2.36 7.4 -2.36 z M46.2 30.84 l0 -8 c0 -3.52 -1.88 -4.24 -3.6 -4.24 l-0.48 0 c-2.56 0 -3.56 1.64 -3.56 4.24 l0 8 c0 3.52 1.88 4.28 3.56 4.28 l0.48 0 c2.56 0 3.56 -1.72 3.6 -4.28 z M69.52000000000001 38.24 c2.24 -1.08 3.48 -3.24 3.48 -6.6 c0 -3.2 -3.4 -5.2 -6.16 -6.44 c-1.04 -0.64 -2.32 -0.88 -3.72 -1.8 c-1.32 -0.84 -2 -1.88 -2 -3.08 s0.68 -2.28 1.92 -2.8 c1 -0.48 2.08 -0.52 2.36 -0.52 c1.32 0 3.12 0.44 4.72 2.56 l1.68 -1.16 c-1.24 -2.4 -3.2 -3.64 -5.84 -3.64 c-3.44 0 -7.44 2 -7.44 6 c0 3.6 3.6 5.6 6.68 6.8 c2.04 0.8 5 2.2 5 4.88 c0 2.36 -1.96 4.12 -4.4 4.12 c-2 0 -3.64 -1.2 -4.76 -2.84 l-1.92 1.6 c1.24 2.48 4.28 3.6 6.88 3.6 c1.36 0 2.56 -0.2 3.52 -0.68 z M67.52000000000001 23.8 c3.04 1.44 7 3.72 7 7.84 c0 1.2 -0.2 3.52 -1.52 5.48 c-1.48 2.2 -3.8 3.28 -7 3.28 c-3.4 0 -7.36 -1.64 -8.6 -5.36 c-0.04 -0.12 0 -0.24 0.12 -0.32 l3.68 -3.16 c0.16 -0.12 0.4 -0.12 0.52 0.08 c0.08 0.2 0.24 0.52 0.44 0.92 c0.6 1.24 2.04 2.48 3.64 2.48 c1.24 0 2.92 -0.68 2.92 -2.6 c0 -1.84 -2.52 -2.88 -4.08 -3.48 c-1.8 -0.72 -3.64 -1.64 -5.2 -3 c-1.64 -1.52 -2.44 -3.2 -2.44 -5.2 c0 -5 4.6 -7.52 8.96 -7.52 c3.44 0 6 1.8 7.68 5.36 c0.08 0.16 0 0.36 -0.12 0.44 l-3.56 2.48 c-0.16 0.08 -0.24 0.08 -0.4 -0.12 c-1.36 -1.96 -2.56 -2.88 -4.16 -2.88 c-0.84 0 -2.8 0.32 -2.8 1.8 c0 1.8 3.32 2.72 4.92 3.48 z M96 38.52 l0 -23.4 l-2.24 0 l0 10.4 l-9.52 0 l0 -10.4 l-2.24 0 l0 23.4 l2.24 0 l0 -11 l9.52 0 l0 11 l2.24 0 z M92.24000000000001 24 l0 -10.04 c0 -0.2 0.16 -0.36 0.36 -0.36 l4.56 0 c0.2 0 0.36 0.16 0.36 0.36 l0 25.68 c0 0.2 -0.16 0.36 -0.36 0.36 l-4.56 0 c-0.2 0 -0.36 -0.16 -0.36 -0.36 l0 -10.64 l-6.48 0 l0 10.64 c0 0.2 -0.16 0.36 -0.36 0.36 l-4.56 0 c-0.2 0 -0.32 -0.16 -0.32 -0.36 l0 -25.68 c0 -0.2 0.12 -0.36 0.32 -0.36 l4.56 0 c0.2 0 0.36 0.16 0.36 0.36 l0 10.04 l6.48 0 z"></path></g><g id="SvgjsG3608" featureKey="nameFeature-1" transform="matrix(4.11256965187323,0,0,4.11256965187323,-15.463261851822823,154.06905508775532)" fill="#fff0e5"><path d="M18.84 20.44 c0 1.56 -0.24 2.92 -0.8 3.92 c1.52 1.44 2.16 3.76 2.16 7 c0 3.44 -0.72 5.88 -2.36 7.16 c-1.56 1.24 -3.76 1.48 -5.96 1.48 l-7.8 0 c-0.2 0 -0.32 -0.16 -0.32 -0.36 l0 -25.68 c0 -0.2 0.12 -0.36 0.32 -0.36 l6.4 0 c2.16 0 4.4 0.16 5.92 1.16 c1.88 1.2 2.44 3.36 2.44 5.68 z M16.96 37.32 c1.12 -0.92 1.72 -2.92 1.72 -5.96 c0 -2.64 -0.48 -4.72 -2.48 -6.72 c0.96 -1.72 1.16 -2.84 1.16 -4.2 c0 -2.24 -0.56 -3.68 -1.76 -4.44 c-1.2 -0.8 -3.36 -0.88 -5.12 -0.88 l-5.24 0 l0 23.4 l6.64 0 c1.68 0 3.76 -0.16 5.08 -1.2 z M7.56 26.32 l3.88 0 c2.72 0 4.92 1.92 4.92 4.92 c0 3.4 -2.72 5 -5.8 5 l-3 0 l0 -9.92 z M11.48 23.96 l-3.92 0 l0 -6.6 l3.08 0 c2.04 0 4.32 0.48 4.32 3.28 c0 2.2 -1.32 3.32 -3.48 3.32 z M10.56 34.76 c2.2 0 4.28 -0.96 4.28 -3.52 c0 -1.92 -1.36 -3.44 -3.4 -3.44 l-2.4 0 l0 6.96 l1.52 0 z M9.04 18.84 l0 3.6 l2.44 0 c1.28 0 1.96 -0.4 1.96 -1.8 s-1.04 -1.8 -2.8 -1.8 l-1.6 0 z M43.239999999999995 32.16 l0 -17.04 l-2.24 0 l0 15.64 c0 3.04 -1.72 5.76 -5.12 5.76 l-0.48 0 c-3.32 0 -5.12 -2.52 -5.12 -5.76 l0 -15.64 l-2.28 0 l0 16.92 c0 5.16 2.96 6.88 7.64 6.88 c4.64 0 7.6 -1.68 7.6 -6.76 z M39.480000000000004 30.759999999999998 l0 -16.8 c0 -0.2 0.16 -0.36 0.36 -0.36 l4.56 0 c0.2 0 0.36 0.16 0.36 0.36 l0 18.08 c0 5.76 -3.16 8.36 -9.12 8.36 c-5.64 0 -9.16 -2.24 -9.16 -8.36 l0 -18.08 c0 -0.2 0.16 -0.36 0.36 -0.36 l4.6 0 c0.2 0 0.36 0.16 0.36 0.36 l0 16.8 c0 3.48 1.96 4.24 3.6 4.24 l0.48 0 c2.48 0 3.6 -1.68 3.6 -4.24 z M59.64 27.2 l5.24 -12.08 l-2.04 0 l-4.4 8.68 l-4.44 -8.68 l-2.04 0 l5.32 12.08 l0 11.32 l2.36 0 l0 -11.32 z M58.440000000000005 20.52 l3.4 -6.72 c0.12 -0.2 0.16 -0.2 0.32 -0.2 l4.48 0 c0.24 0 0.4 0.24 0.32 0.44 l-5.8 13.48 l0 12.12 c0 0.2 -0.16 0.36 -0.36 0.36 l-4.72 0 c-0.12 0 -0.28 -0.16 -0.28 -0.36 l0 -12.12 l-5.96 -13.4 c-0.08 -0.28 0.04 -0.52 0.32 -0.52 l4.48 0 c0.16 0 0.2 0 0.32 0.2 z"></path></g><g id="SvgjsG3609" featureKey="sloganFeature-0" transform="matrix(0.6177333227920772,0,0,0.6177333227920772,50.04939490675878,332.9978153796378)" fill="#fff0e5"><path d="M7.48 12.18 c0 0.49334 0.0033984 1.03 0.010059 1.61 s-0.01668 1.16 -0.07002 1.74 s-0.15 1.14 -0.29 1.68 s-0.35666 1.0167 -0.65 1.43 s-0.67668 0.74334 -1.15 0.99 s-1.0633 0.37 -1.77 0.37 l-3.64 0 l0 -15 l3.5 0 c0.73334 0 1.34 0.10334 1.82 0.31 s0.87334 0.48666 1.18 0.84 s0.53332 0.76668 0.67998 1.24 s0.24666 0.97668 0.3 1.51 s0.08 1.08 0.08 1.64 l0 1.64 z M6.12 12.32 l0.000019531 -0.85996 c0 -0.37334 -0.01 -0.76 -0.03 -1.16 s-0.04666 -0.78 -0.08 -1.14 s-0.07668 -0.62666 -0.13002 -0.8 c-0.22666 -0.66666 -0.54 -1.16 -0.94 -1.48 s-0.96 -0.48 -1.68 -0.48 l-2 0 l0 12.16 l2.26 0 c0.29334 0 0.56 -0.05334 0.8 -0.16 s0.46 -0.25 0.66 -0.43 s0.37 -0.38666 0.51 -0.62 s0.25666 -0.47668 0.35 -0.73002 c0.06666 -0.17334 0.11666 -0.45668 0.15 -0.85002 s0.06 -0.81 0.08 -1.25 s0.03334 -0.86334 0.04 -1.27 s0.01 -0.71666 0.01 -0.93 z M20.1205 16.12 c0 1.4133 -0.31666 2.4434 -0.95 3.09 s-1.6633 0.97 -3.09 0.97 c-1.3067 0 -2.2634 -0.36 -2.87 -1.08 s-0.91 -1.7133 -0.91 -2.98 l0 -7.2 c0 -1.3733 0.32334 -2.3934 0.97 -3.06 s1.6633 -1 3.05 -1 c1.32 0 2.2834 0.35 2.89 1.05 s0.91 1.69 0.91 2.97 l0 7.24 z M18.7205 16.08 l-0.000019531 -7.22 c0 -0.76 -0.2 -1.3933 -0.6 -1.9 s-1.0067 -0.76 -1.82 -0.76 c-0.97334 0 -1.65 0.25334 -2.03 0.76 s-0.57 1.22 -0.57 2.14 l0 6.9 c0 0.38666 0.04334 0.75 0.13 1.09 s0.22666 0.63666 0.42 0.89 s0.44 0.45334 0.74 0.6 s0.66334 0.22 1.09 0.22 c0.93334 0 1.6067 -0.22666 2.02 -0.68 s0.62 -1.1333 0.62 -2.04 z M33.241 20 l-1.56 0 l-5.2 -11.8 l0 11.8 l-1.44 0 l0 -15 l1.44 0 l5.22 11.3 l0.12 -11.3 l1.42 0 l0 15 z M40.0615 7.800000000000001 l-1.6 0 l0 -1.54 l1.6 -1.26 l0 2.8 z M52.322 6.460000000000001 l-3.1 0 l0 13.54 l-1.48 0 l0 -13.54 l-3.1 0 l0 -1.46 l7.68 0 l0 1.46 z M78.003 5 l-3.44 15 l-1.28 0 l-2.5 -12.24 l-2.48 12.24 l-1.26 0 l-3.44 -15 l1.44 0 l2.52 12 l2.76 -11.96 l-0.02 -0.04 l0.02 0 l0.96 0 l0.11 0.49 c0.07334 0.32666 0.17 0.75332 0.29 1.28 s0.25666 1.1333 0.41 1.82 s0.31334 1.39 0.48 2.11 s0.33 1.4333 0.49 2.14 s0.30666 1.35 0.44 1.93 s0.24668 1.07 0.34002 1.47 s0.15334 0.65334 0.18 0.76 l2.52 -12 l1.46 0 z M89.80350000000001 16.12 c0 1.4133 -0.31666 2.4434 -0.95 3.09 s-1.6633 0.97 -3.09 0.97 c-1.3067 0 -2.2634 -0.36 -2.87 -1.08 s-0.91 -1.7133 -0.91 -2.98 l0 -7.2 c0 -1.3733 0.32334 -2.3934 0.97 -3.06 s1.6633 -1 3.05 -1 c1.32 0 2.2834 0.35 2.89 1.05 s0.91 1.69 0.91 2.97 l0 7.24 z M88.40350000000001 16.08 l-0.000019531 -7.22 c0 -0.76 -0.2 -1.3933 -0.6 -1.9 s-1.0067 -0.76 -1.82 -0.76 c-0.97334 0 -1.65 0.25334 -2.03 0.76 s-0.57 1.22 -0.57 2.14 l0 6.9 c0 0.38666 0.04334 0.75 0.13 1.09 s0.22666 0.63666 0.42 0.89 s0.44 0.45334 0.74 0.6 s0.66334 0.22 1.09 0.22 c0.93334 0 1.6067 -0.22666 2.02 -0.68 s0.62 -1.1333 0.62 -2.04 z M103.70400000000001 20 l-1.72 -0.000019531 l-3.14 -6.06 l-2.6 0 l0 6.06 l-1.34 0 l0 -15 l3.44 0 c1.3733 0 2.46 0.39334 3.26 1.18 s1.2 1.8667 1.2 3.24 c0 0.42666 -0.05666 0.86 -0.17 1.3 s-0.27668 0.85334 -0.49002 1.24 s-0.47668 0.73666 -0.79002 1.05 s-0.67 0.55668 -1.07 0.73002 z M101.38400000000001 9.32 c0 -0.46666 -0.08 -0.88664 -0.24 -1.26 s-0.38 -0.69 -0.66 -0.95 s-0.61334 -0.46 -1 -0.6 s-0.80666 -0.21 -1.26 -0.21 l-1.98 0 l0 6.26 l2.1 0 c1.0667 0 1.84 -0.28666 2.32 -0.86 s0.72 -1.3667 0.72 -2.38 z M116.9445 20 l-1.72 -0.000019531 l-3.14 -6.06 l-2.6 0 l0 6.06 l-1.34 0 l0 -15 l3.44 0 c1.3733 0 2.46 0.39334 3.26 1.18 s1.2 1.8667 1.2 3.24 c0 0.42666 -0.05666 0.86 -0.17 1.3 s-0.27668 0.85334 -0.49002 1.24 s-0.47668 0.73666 -0.79002 1.05 s-0.67 0.55668 -1.07 0.73002 z M114.62450000000001 9.32 c0 -0.46666 -0.08 -0.88664 -0.24 -1.26 s-0.38 -0.69 -0.66 -0.95 s-0.61334 -0.46 -1 -0.6 s-0.80666 -0.21 -1.26 -0.21 l-1.98 0 l0 6.26 l2.1 0 c1.0667 0 1.84 -0.28666 2.32 -0.86 s0.72 -1.3667 0.72 -2.38 z M128.345 5 l-3.54 8.16 l0 6.84 l-1.44 0 l0 -6.84 l-3.54 -8.16 l1.6 0 l2.64 6.44 l2.68 -6.44 l1.6 0 z M134.6055 20 l-1.58 1.24 l0 -2.78 l1.58 0 l0 1.54 z M160.2865 5 l-3.44 15 l-1.28 0 l-2.5 -12.24 l-2.48 12.24 l-1.26 0 l-3.44 -15 l1.44 0 l2.52 12 l2.76 -11.96 l-0.02 -0.04 l0.02 0 l0.96 0 l0.11 0.49 c0.07334 0.32666 0.17 0.75332 0.29 1.28 s0.25666 1.1333 0.41 1.82 s0.31334 1.39 0.48 2.11 s0.33 1.4333 0.49 2.14 s0.30666 1.35 0.44 1.93 s0.24668 1.07 0.34002 1.47 s0.15334 0.65334 0.18 0.76 l2.52 -12 l1.46 0 z M171.84699999999998 20 l-7.5 0 l0 -15 l7.36 0 l0 1.52 l-5.98 0 l0 5.16 l5.94 0 l0 1.3 l-5.94 0 l0 5.5 l6.12 0 l0 1.52 z M191.04799999999997 20 l-1.52 0 l-0.02 -6.8 l-4.8 0 l0.02 6.8 l-1.5 0 l0 -15 l1.5 0 l-0.02 6.78 l4.8 0 l0.02 -6.78 l1.52 0 l0 15 z M204.6085 20 l-1.4 0 l-1.06 -4.3 l-4.36 0 l-1.06 4.3 l-1.36 0 l4.06 -15 l1.14 0 z M201.80849999999998 14.36 l-1.78 -7.42 l-1.9 7.42 l3.68 0 z M216.04899999999998 5 l-4.08 15 l-1.14 0 l-4.06 -15 l1.42 0 l3.2 12.32 l3.28 -12.32 l1.38 0 z M227.64949999999996 20 l-7.5 0 l0 -15 l7.36 0 l0 1.52 l-5.98 0 l0 5.16 l5.94 0 l0 1.3 l-5.94 0 l0 5.5 l6.12 0 l0 1.52 z M240.53049999999996 20 l-1.5 0 l0 -15 l1.5 0 l0 15 z M252.81099999999998 6.460000000000001 l-3.1 0 l0 13.54 l-1.48 0 l0 -13.54 l-3.1 0 l0 -1.46 l7.68 0 l0 1.46 z M258.93149999999997 5 l-0.1 11.74 l-1.26 0 l-0.1 -11.74 l1.46 0 z M258.93149999999997 20 l-1.46 0 l0 -1.54 l1.46 0 l0 1.54 z"></path></g>
			</g>
		</svg>
	